<?xml version="1.0" encoding="UTF-8"?>
<svg id="Layer_1" data-name="Layer 1" xmlns="http://www.w3.org/2000/svg" version="1.1" viewBox="0 0 1200 1200">
  <defs>
    <style>
      .cls-1 {
        fill: #231f20;
      }

      .cls-1, .cls-2 {
        stroke-width: 0px;
      }

      .cls-2 {
        fill: #fff;
      }
    </style>
  </defs>
  <circle class="cls-2" cx="600.5" cy="600" r="225.08"/>
  <path class="cls-2" d="M928.39,883.19c-24.5-29.19-68.02-33-97.21-8.5-.38.32-.74.65-1.11.98-10.8,9.38-100.11,83.36-230.08,83.36s-218.46-73.29-229.25-82.67c-.37-.33-.73-.67-1.12-.99-29.19-24.5-72.71-20.69-97.21,8.5s-20.69,72.71,8.5,97.21c0,0,121.58,115.74,319.08,115.74s319.89-116.42,319.89-116.42c29.19-24.5,33-68.02,8.5-97.21Z"/>
  <path class="cls-1" d="M600,1078.82c-97.77,0-175.81-30.01-224.05-55.19-52.61-27.45-82.34-55.33-82.63-55.61l-.39-.37-.43-.36c-21.54-18.08-24.36-50.31-6.29-71.85,9.72-11.58,23.97-18.22,39.1-18.22,11.95,0,23.58,4.24,32.75,11.93,0,0,.64.57.84.75,7,6.08,32.85,27.33,73.89,47.46,53.63,26.32,109.89,39.66,167.22,39.66s113.78-13.46,167.68-40.01c41.19-20.29,67.21-41.68,74.2-47.75.26-.23.91-.81.91-.81,9.13-7.66,20.76-11.9,32.71-11.9,15.14,0,29.39,6.64,39.1,18.22,8.76,10.44,12.92,23.66,11.74,37.23-1.19,13.57-7.59,25.87-18.02,34.62l-.51.42-.47.46c-.27.26-29.53,28.27-81.97,55.85-48.12,25.31-126.27,55.48-225.37,55.48Z"/>
  <path class="cls-2" d="M681.06,174.01c-13.03,35.81,5.43,75.4,41.24,88.44.47.17.93.31,1.4.47,13.52,4.66,122.24,45.02,187.23,157.57,64.95,112.49,45.75,225.83,43.03,239.87-.1.49-.21.97-.3,1.46-6.62,37.53,18.44,73.32,55.97,79.93s73.32-18.44,79.93-55.97c0,0,39.44-163.16-59.3-334.2-100.09-173.35-260.77-218.82-260.77-218.82-35.81-13.03-75.4,5.43-88.44,41.24Z"/>
  <path class="cls-1" d="M1021.69,724.82c-2.97,0-5.98-.26-8.94-.79-13.42-2.37-25.11-9.81-32.92-20.97s-10.81-24.69-8.45-38.11c0,0,.17-.83.23-1.09,1.76-9.11,7.24-42.12,4.16-87.73-4.02-59.6-20.6-114.99-49.26-164.64-28.68-49.68-68.55-91.81-118.49-125.21-38.17-25.53-69.7-37.36-78.46-40.38-.32-.11-1.15-.38-1.15-.38-12.76-4.64-22.98-14.01-28.74-26.36-5.76-12.35-6.36-26.2-1.7-39,7.31-20.08,26.57-33.58,47.93-33.58,5.93,0,11.79,1.04,17.44,3.09l.62.23.64.18c.36.1,39.24,11.44,89.35,43.06,45.98,29.01,111.18,81.62,160.73,167.44,48.88,84.67,61.91,167.26,64.23,221.63,2.53,59.29-6.75,98.97-6.84,99.36l-.12.52-.1.55c-4.31,24.43-25.4,42.16-50.14,42.16h0Z"/>
  <path class="cls-2" d="M190.55,742.8c37.53-6.62,62.59-42.4,55.97-79.93-.09-.49-.2-.96-.29-1.45-2.72-14.04-22.14-128.37,42.85-240.93,64.95-112.49,172.7-152.54,186.22-157.2.47-.16.94-.3,1.41-.47,35.81-13.03,54.27-52.63,41.24-88.44-13.03-35.81-52.63-54.27-88.44-41.24,0,0-161.03,47.42-259.77,218.46-100.09,173.35-59.12,335.24-59.12,335.24,6.62,37.53,42.4,62.59,79.93,55.97Z"/>
  <path class="cls-1" d="M178.49,725.86c-24.75,0-45.84-17.73-50.15-42.16l-.11-.65-.16-.64c-.09-.36-9.71-39.7-7.38-98.91,2.14-54.32,15.09-137.09,64.64-222.92,48.89-84.67,113.9-137.25,159.82-166.44,50.08-31.83,89.08-43.64,89.47-43.76l.51-.15.53-.19c5.64-2.05,11.51-3.09,17.44-3.09,21.36,0,40.62,13.49,47.93,33.58,4.66,12.8,4.05,26.65-1.7,39s-15.98,21.71-28.78,26.37l-1.05.35c-8.78,3.03-40.11,14.8-78.06,40.26-49.6,33.28-89.29,75.33-117.95,124.98-28.68,49.68-45.23,105.27-49.19,165.22-3.02,45.82,2.49,79.04,4.26,88.13.07.33.25,1.2.25,1.2,4.87,27.64-13.68,54.15-41.38,59.03-2.96.52-5.96.79-8.93.79h0Z"/>
  <circle class="cls-1" cx="601.24" cy="598.76" r="202.28"/>
</svg>