<?xml version="1.0" encoding="UTF-8"?><svg id="Layer_4" xmlns="http://www.w3.org/2000/svg" viewBox="0 0 209.42 213.33"><defs><style>.cls-1{fill:none;stroke:#000;stroke-linecap:square;stroke-linejoin:bevel;stroke-width:11px;}.cls-2{fill:#fff200;}</style></defs><polygon points="29.89 15.96 51.61 75.06 65.03 70.62 45.99 18.82 29.89 15.96"/><polygon points="67.45 77.22 54.03 81.66 58.86 94.8 72.28 90.36 67.45 77.22"/><polygon points="179.53 15.96 157.81 75.06 144.39 70.62 163.43 18.82 179.53 15.96"/><polygon points="141.97 77.22 155.38 81.66 150.56 94.8 137.14 90.36 141.97 77.22"/><ellipse cx="104.71" cy="117.37" rx="93.06" ry="80"/><ellipse class="cls-2" cx="104.71" cy="114.34" rx="81.03" ry="69.67"/><polygon points="65.19 106.49 51.35 104.47 62.17 63.08 76.01 65.1 65.19 106.49"/><polygon points="141.13 106.49 154.97 104.47 144.15 63.08 130.31 65.1 141.13 106.49"/><polyline class="cls-1" points="132.23 119.62 130.17 143.7 105.44 121.23 80.71 143.7 78.65 119.62"/></svg>